<svg xmlns="http://www.w3.org/2000/svg" viewBox="0 0 100 128">
  <!-- Teaching That Lands, CC BY 4.0. Slide deck (.pptx): same silhouette as pdf_icon.svg. -->
  <defs>
    <linearGradient id="pptx-page" x1="0" y1="0" x2="1" y2="1">
      <stop offset="0" stop-color="#ec6a2c"/>
      <stop offset="1" stop-color="#c8501a"/>
    </linearGradient>
  </defs>
  <path d="M22 0C2 0 0 2 0 22v84c0 20 2 22 22 22h56c20 0 22-2 22-22V36L64 0z" fill="url(#pptx-page)"/>
  <path d="M64 0v22c0 10 4 14 14 14h22z" fill="#fff" fill-opacity="0.45"/>
  <!-- A slide with a bar chart -->
  <rect x="16" y="48" width="68" height="42" rx="4" fill="none" stroke="#fff" stroke-width="5"/>
  <path d="M33 80v-8M45 80v-16M57 80v-11M69 80v-21" stroke="#fff" stroke-width="6" stroke-linecap="round"/>
  <rect x="18" y="98" width="64" height="18" rx="4" fill="#fff"/>
  <text x="50" y="112.5" text-anchor="middle" font-family="Inter, Helvetica, Arial, sans-serif" font-size="15" font-weight="800" fill="#c8501a" letter-spacing="1.5">PPTX</text>
</svg>
